<mxfile host="app.diagrams.net" agent="Mozilla/5.0 (Windows NT 10.0; Win64; x64) AppleWebKit/537.36 (KHTML, like Gecko) Chrome/128.0.0.0 Safari/537.36" version="24.7.12">
  <diagram name="Page-1" id="4C12GIgkmyw9_0KIOS7W">
    <mxGraphModel dx="2448" dy="1040" grid="0" gridSize="10" guides="1" tooltips="1" connect="1" arrows="1" fold="1" page="0" pageScale="1" pageWidth="827" pageHeight="1169" math="0" shadow="0">
      <root>
        <mxCell id="0" />
        <mxCell id="1" parent="0" />
        <mxCell id="DUNOncYotzXCqIojbgHw-14" value="Traffic sensor" style="rounded=0;whiteSpace=wrap;html=1;" vertex="1" parent="1">
          <mxGeometry x="-139" y="9" width="120" height="59" as="geometry" />
        </mxCell>
        <mxCell id="DUNOncYotzXCqIojbgHw-15" value="central control Sytem" style="rounded=0;whiteSpace=wrap;html=1;" vertex="1" parent="1">
          <mxGeometry x="72" y="8" width="120" height="60" as="geometry" />
        </mxCell>
        <mxCell id="DUNOncYotzXCqIojbgHw-16" value="Traffic Light" style="rounded=0;whiteSpace=wrap;html=1;" vertex="1" parent="1">
          <mxGeometry x="309" y="13" width="120" height="60" as="geometry" />
        </mxCell>
        <mxCell id="DUNOncYotzXCqIojbgHw-17" value="New Traffic sensor" style="rounded=0;whiteSpace=wrap;html=1;" vertex="1" parent="1">
          <mxGeometry x="531" y="17" width="120" height="60" as="geometry" />
        </mxCell>
        <mxCell id="DUNOncYotzXCqIojbgHw-18" value="New Traffic Light" style="rounded=0;whiteSpace=wrap;html=1;" vertex="1" parent="1">
          <mxGeometry x="761" y="17" width="120" height="60" as="geometry" />
        </mxCell>
        <mxCell id="DUNOncYotzXCqIojbgHw-19" value="" style="endArrow=none;dashed=1;html=1;rounded=0;entryX=0.5;entryY=1;entryDx=0;entryDy=0;" edge="1" parent="1" target="DUNOncYotzXCqIojbgHw-14">
          <mxGeometry width="50" height="50" relative="1" as="geometry">
            <mxPoint x="-79" y="1121" as="sourcePoint" />
            <mxPoint x="141" y="239" as="targetPoint" />
          </mxGeometry>
        </mxCell>
        <mxCell id="DUNOncYotzXCqIojbgHw-20" value="" style="endArrow=none;dashed=1;html=1;rounded=0;entryX=0.5;entryY=1;entryDx=0;entryDy=0;" edge="1" parent="1" target="DUNOncYotzXCqIojbgHw-17">
          <mxGeometry width="50" height="50" relative="1" as="geometry">
            <mxPoint x="587" y="1120" as="sourcePoint" />
            <mxPoint x="586.5" y="121" as="targetPoint" />
          </mxGeometry>
        </mxCell>
        <mxCell id="DUNOncYotzXCqIojbgHw-21" value="" style="endArrow=none;dashed=1;html=1;rounded=0;entryX=0.5;entryY=1;entryDx=0;entryDy=0;" edge="1" parent="1" target="DUNOncYotzXCqIojbgHw-18">
          <mxGeometry width="50" height="50" relative="1" as="geometry">
            <mxPoint x="821" y="1125" as="sourcePoint" />
            <mxPoint x="814.5" y="123" as="targetPoint" />
            <Array as="points">
              <mxPoint x="821" y="1081" />
            </Array>
          </mxGeometry>
        </mxCell>
        <mxCell id="DUNOncYotzXCqIojbgHw-22" value="" style="endArrow=none;dashed=1;html=1;rounded=0;entryX=0.5;entryY=1;entryDx=0;entryDy=0;" edge="1" parent="1" target="DUNOncYotzXCqIojbgHw-16">
          <mxGeometry width="50" height="50" relative="1" as="geometry">
            <mxPoint x="369" y="1120" as="sourcePoint" />
            <mxPoint x="367.5" y="129" as="targetPoint" />
          </mxGeometry>
        </mxCell>
        <mxCell id="DUNOncYotzXCqIojbgHw-23" value="" style="endArrow=none;dashed=1;html=1;rounded=0;entryX=0.5;entryY=1;entryDx=0;entryDy=0;" edge="1" parent="1" target="DUNOncYotzXCqIojbgHw-15">
          <mxGeometry width="50" height="50" relative="1" as="geometry">
            <mxPoint x="128" y="1115" as="sourcePoint" />
            <mxPoint x="131.5" y="123" as="targetPoint" />
          </mxGeometry>
        </mxCell>
        <mxCell id="DUNOncYotzXCqIojbgHw-24" value="" style="endArrow=classic;html=1;rounded=0;" edge="1" parent="1">
          <mxGeometry width="50" height="50" relative="1" as="geometry">
            <mxPoint x="-78" y="154" as="sourcePoint" />
            <mxPoint x="133" y="154" as="targetPoint" />
          </mxGeometry>
        </mxCell>
        <mxCell id="DUNOncYotzXCqIojbgHw-25" value="" style="endArrow=classic;html=1;rounded=0;exitX=0;exitY=0.75;exitDx=0;exitDy=0;" edge="1" parent="1" source="DUNOncYotzXCqIojbgHw-40">
          <mxGeometry width="50" height="50" relative="1" as="geometry">
            <mxPoint x="-63" y="205" as="sourcePoint" />
            <mxPoint x="133" y="205" as="targetPoint" />
          </mxGeometry>
        </mxCell>
        <mxCell id="DUNOncYotzXCqIojbgHw-26" value="Acknowledge Data" style="html=1;verticalAlign=bottom;endArrow=open;dashed=1;endSize=8;curved=0;rounded=0;" edge="1" parent="1">
          <mxGeometry relative="1" as="geometry">
            <mxPoint x="130" y="180" as="sourcePoint" />
            <mxPoint x="-77" y="178" as="targetPoint" />
          </mxGeometry>
        </mxCell>
        <mxCell id="DUNOncYotzXCqIojbgHw-31" value="" style="endArrow=classic;html=1;rounded=0;" edge="1" parent="1">
          <mxGeometry width="50" height="50" relative="1" as="geometry">
            <mxPoint x="129" y="224" as="sourcePoint" />
            <mxPoint x="132" y="243" as="targetPoint" />
            <Array as="points">
              <mxPoint x="161" y="224" />
              <mxPoint x="161" y="243" />
            </Array>
          </mxGeometry>
        </mxCell>
        <mxCell id="DUNOncYotzXCqIojbgHw-33" value="" style="endArrow=classic;html=1;rounded=0;" edge="1" parent="1">
          <mxGeometry width="50" height="50" relative="1" as="geometry">
            <mxPoint x="132" y="256" as="sourcePoint" />
            <mxPoint x="367" y="254" as="targetPoint" />
          </mxGeometry>
        </mxCell>
        <mxCell id="DUNOncYotzXCqIojbgHw-34" value="Acknowledge feedback" style="html=1;verticalAlign=bottom;endArrow=open;dashed=1;endSize=8;curved=0;rounded=0;" edge="1" parent="1">
          <mxGeometry relative="1" as="geometry">
            <mxPoint x="133" y="305" as="sourcePoint" />
            <mxPoint x="370" y="305" as="targetPoint" />
          </mxGeometry>
        </mxCell>
        <mxCell id="DUNOncYotzXCqIojbgHw-35" value="" style="endArrow=classic;html=1;rounded=0;" edge="1" parent="1">
          <mxGeometry width="50" height="50" relative="1" as="geometry">
            <mxPoint x="367" y="279" as="sourcePoint" />
            <mxPoint x="133" y="279" as="targetPoint" />
          </mxGeometry>
        </mxCell>
        <mxCell id="DUNOncYotzXCqIojbgHw-39" value="collect traffic data" style="text;html=1;align=center;verticalAlign=middle;whiteSpace=wrap;rounded=0;" vertex="1" parent="1">
          <mxGeometry x="-70" y="132" width="116" height="30" as="geometry" />
        </mxCell>
        <mxCell id="DUNOncYotzXCqIojbgHw-40" value="Transmit data" style="text;html=1;align=center;verticalAlign=middle;whiteSpace=wrap;rounded=0;" vertex="1" parent="1">
          <mxGeometry x="-83" y="183" width="116" height="30" as="geometry" />
        </mxCell>
        <mxCell id="DUNOncYotzXCqIojbgHw-41" value="Process and decide on traffic light timing" style="text;html=1;align=center;verticalAlign=middle;whiteSpace=wrap;rounded=0;" vertex="1" parent="1">
          <mxGeometry x="121" y="201" width="258" height="30" as="geometry" />
        </mxCell>
        <mxCell id="DUNOncYotzXCqIojbgHw-43" value="Adjust traffic light" style="text;html=1;align=center;verticalAlign=middle;whiteSpace=wrap;rounded=0;" vertex="1" parent="1">
          <mxGeometry x="153" y="234" width="106" height="30" as="geometry" />
        </mxCell>
        <mxCell id="DUNOncYotzXCqIojbgHw-46" value="send Adjustment feedback" style="text;html=1;align=center;verticalAlign=middle;whiteSpace=wrap;rounded=0;" vertex="1" parent="1">
          <mxGeometry x="207" y="257" width="155" height="30" as="geometry" />
        </mxCell>
        <mxCell id="DUNOncYotzXCqIojbgHw-47" value="" style="endArrow=classic;html=1;rounded=0;" edge="1" parent="1">
          <mxGeometry width="50" height="50" relative="1" as="geometry">
            <mxPoint x="-80" y="383" as="sourcePoint" />
            <mxPoint x="131" y="383" as="targetPoint" />
          </mxGeometry>
        </mxCell>
        <mxCell id="DUNOncYotzXCqIojbgHw-49" value="collect traffic data" style="text;html=1;align=center;verticalAlign=middle;whiteSpace=wrap;rounded=0;" vertex="1" parent="1">
          <mxGeometry x="-72" y="357" width="144" height="30" as="geometry" />
        </mxCell>
        <mxCell id="DUNOncYotzXCqIojbgHw-50" value="" style="endArrow=none;html=1;rounded=0;" edge="1" parent="1">
          <mxGeometry width="50" height="50" relative="1" as="geometry">
            <mxPoint x="-79" y="418" as="sourcePoint" />
            <mxPoint x="118" y="416" as="targetPoint" />
          </mxGeometry>
        </mxCell>
        <mxCell id="DUNOncYotzXCqIojbgHw-51" value="" style="endArrow=none;html=1;rounded=0;" edge="1" parent="1">
          <mxGeometry width="50" height="50" relative="1" as="geometry">
            <mxPoint x="123" y="430" as="sourcePoint" />
            <mxPoint x="115" y="408" as="targetPoint" />
          </mxGeometry>
        </mxCell>
        <mxCell id="DUNOncYotzXCqIojbgHw-52" value="" style="endArrow=none;html=1;rounded=0;" edge="1" parent="1">
          <mxGeometry width="50" height="50" relative="1" as="geometry">
            <mxPoint x="112" y="430" as="sourcePoint" />
            <mxPoint x="124" y="406" as="targetPoint" />
          </mxGeometry>
        </mxCell>
        <mxCell id="DUNOncYotzXCqIojbgHw-53" value="Sensor fails to send data" style="text;html=1;align=center;verticalAlign=middle;whiteSpace=wrap;rounded=0;" vertex="1" parent="1">
          <mxGeometry x="-77" y="394" width="144" height="30" as="geometry" />
        </mxCell>
        <mxCell id="DUNOncYotzXCqIojbgHw-54" value="" style="endArrow=classic;html=1;rounded=0;" edge="1" parent="1">
          <mxGeometry width="50" height="50" relative="1" as="geometry">
            <mxPoint x="131" y="426" as="sourcePoint" />
            <mxPoint x="134" y="445" as="targetPoint" />
            <Array as="points">
              <mxPoint x="163" y="426" />
              <mxPoint x="163" y="445" />
            </Array>
          </mxGeometry>
        </mxCell>
        <mxCell id="DUNOncYotzXCqIojbgHw-55" value="" style="endArrow=classic;html=1;rounded=0;" edge="1" parent="1">
          <mxGeometry width="50" height="50" relative="1" as="geometry">
            <mxPoint x="132" y="461" as="sourcePoint" />
            <mxPoint x="135" y="480" as="targetPoint" />
            <Array as="points">
              <mxPoint x="164" y="461" />
              <mxPoint x="164" y="480" />
            </Array>
          </mxGeometry>
        </mxCell>
        <mxCell id="DUNOncYotzXCqIojbgHw-56" value="" style="endArrow=classic;html=1;rounded=0;" edge="1" parent="1">
          <mxGeometry width="50" height="50" relative="1" as="geometry">
            <mxPoint x="132" y="491" as="sourcePoint" />
            <mxPoint x="369" y="491" as="targetPoint" />
          </mxGeometry>
        </mxCell>
        <mxCell id="DUNOncYotzXCqIojbgHw-57" value="" style="endArrow=classic;html=1;rounded=0;" edge="1" parent="1">
          <mxGeometry width="50" height="50" relative="1" as="geometry">
            <mxPoint x="365" y="515" as="sourcePoint" />
            <mxPoint x="127" y="515" as="targetPoint" />
          </mxGeometry>
        </mxCell>
        <mxCell id="DUNOncYotzXCqIojbgHw-58" value="Acknowledge feedback" style="html=1;verticalAlign=bottom;endArrow=open;dashed=1;endSize=8;curved=0;rounded=0;" edge="1" parent="1">
          <mxGeometry relative="1" as="geometry">
            <mxPoint x="131.5" y="542" as="sourcePoint" />
            <mxPoint x="368.5" y="542" as="targetPoint" />
          </mxGeometry>
        </mxCell>
        <mxCell id="DUNOncYotzXCqIojbgHw-59" value="Detect sensor failure" style="text;html=1;align=center;verticalAlign=middle;whiteSpace=wrap;rounded=0;" vertex="1" parent="1">
          <mxGeometry x="125" y="404" width="144" height="30" as="geometry" />
        </mxCell>
        <mxCell id="DUNOncYotzXCqIojbgHw-60" value="collect data from multiple intersections" style="text;html=1;align=center;verticalAlign=middle;whiteSpace=wrap;rounded=0;" vertex="1" parent="1">
          <mxGeometry x="-95" y="630" width="243" height="30" as="geometry" />
        </mxCell>
        <mxCell id="DUNOncYotzXCqIojbgHw-61" value="use alternate data or fallback strategy" style="text;html=1;align=center;verticalAlign=middle;whiteSpace=wrap;rounded=0;" vertex="1" parent="1">
          <mxGeometry x="131" y="439" width="229" height="30" as="geometry" />
        </mxCell>
        <mxCell id="DUNOncYotzXCqIojbgHw-62" value="Adjust traffic light (based on fallback)" style="text;html=1;align=center;verticalAlign=middle;whiteSpace=wrap;rounded=0;" vertex="1" parent="1">
          <mxGeometry x="148" y="469" width="229" height="30" as="geometry" />
        </mxCell>
        <mxCell id="DUNOncYotzXCqIojbgHw-63" value="Send feedback(adjustment complete)" style="text;html=1;align=center;verticalAlign=middle;whiteSpace=wrap;rounded=0;" vertex="1" parent="1">
          <mxGeometry x="133" y="492" width="229" height="30" as="geometry" />
        </mxCell>
        <mxCell id="DUNOncYotzXCqIojbgHw-65" value="" style="endArrow=classic;html=1;rounded=0;" edge="1" parent="1">
          <mxGeometry width="50" height="50" relative="1" as="geometry">
            <mxPoint x="-79" y="659" as="sourcePoint" />
            <mxPoint x="131" y="659" as="targetPoint" />
          </mxGeometry>
        </mxCell>
        <mxCell id="DUNOncYotzXCqIojbgHw-67" value="" style="endArrow=classic;html=1;rounded=0;" edge="1" parent="1">
          <mxGeometry width="50" height="50" relative="1" as="geometry">
            <mxPoint x="131" y="682" as="sourcePoint" />
            <mxPoint x="366" y="682" as="targetPoint" />
          </mxGeometry>
        </mxCell>
        <mxCell id="DUNOncYotzXCqIojbgHw-68" value="" style="endArrow=classic;html=1;rounded=0;" edge="1" parent="1">
          <mxGeometry width="50" height="50" relative="1" as="geometry">
            <mxPoint x="133" y="741" as="sourcePoint" />
            <mxPoint x="368" y="741" as="targetPoint" />
          </mxGeometry>
        </mxCell>
        <mxCell id="DUNOncYotzXCqIojbgHw-69" value="" style="endArrow=classic;html=1;rounded=0;" edge="1" parent="1">
          <mxGeometry width="50" height="50" relative="1" as="geometry">
            <mxPoint x="133" y="712" as="sourcePoint" />
            <mxPoint x="368" y="712" as="targetPoint" />
          </mxGeometry>
        </mxCell>
        <mxCell id="DUNOncYotzXCqIojbgHw-70" value="" style="endArrow=classic;html=1;rounded=0;" edge="1" parent="1">
          <mxGeometry width="50" height="50" relative="1" as="geometry">
            <mxPoint x="367" y="805" as="sourcePoint" />
            <mxPoint x="131" y="805" as="targetPoint" />
          </mxGeometry>
        </mxCell>
        <mxCell id="DUNOncYotzXCqIojbgHw-71" value="" style="endArrow=classic;html=1;rounded=0;" edge="1" parent="1">
          <mxGeometry width="50" height="50" relative="1" as="geometry">
            <mxPoint x="368" y="774" as="sourcePoint" />
            <mxPoint x="133" y="774" as="targetPoint" />
          </mxGeometry>
        </mxCell>
        <mxCell id="DUNOncYotzXCqIojbgHw-72" value="" style="endArrow=classic;html=1;rounded=0;" edge="1" parent="1">
          <mxGeometry width="50" height="50" relative="1" as="geometry">
            <mxPoint x="363" y="838" as="sourcePoint" />
            <mxPoint x="131" y="838" as="targetPoint" />
          </mxGeometry>
        </mxCell>
        <mxCell id="DUNOncYotzXCqIojbgHw-74" value="Adjust lights at Intersection 1" style="text;html=1;align=center;verticalAlign=middle;whiteSpace=wrap;rounded=0;fontStyle=0" vertex="1" parent="1">
          <mxGeometry x="145" y="653" width="179" height="30" as="geometry" />
        </mxCell>
        <mxCell id="DUNOncYotzXCqIojbgHw-77" value="Adjust lights at Intersection 2" style="text;html=1;align=center;verticalAlign=middle;whiteSpace=wrap;rounded=0;fontStyle=0" vertex="1" parent="1">
          <mxGeometry x="145" y="685" width="179" height="30" as="geometry" />
        </mxCell>
        <mxCell id="DUNOncYotzXCqIojbgHw-78" value="Adjust lights at Intersection 3" style="text;html=1;align=center;verticalAlign=middle;whiteSpace=wrap;rounded=0;fontStyle=0" vertex="1" parent="1">
          <mxGeometry x="148" y="718" width="179" height="30" as="geometry" />
        </mxCell>
        <mxCell id="DUNOncYotzXCqIojbgHw-80" value="Send feedback ( intersection 1 )" style="text;html=1;align=center;verticalAlign=middle;whiteSpace=wrap;rounded=0;" vertex="1" parent="1">
          <mxGeometry x="148" y="748" width="197" height="30" as="geometry" />
        </mxCell>
        <mxCell id="DUNOncYotzXCqIojbgHw-81" value="Send feedback ( intersection 2 )" style="text;html=1;align=center;verticalAlign=middle;whiteSpace=wrap;rounded=0;" vertex="1" parent="1">
          <mxGeometry x="148" y="778" width="197" height="30" as="geometry" />
        </mxCell>
        <mxCell id="DUNOncYotzXCqIojbgHw-82" value="Send feedback ( intersection 3 )" style="text;html=1;align=center;verticalAlign=middle;whiteSpace=wrap;rounded=0;" vertex="1" parent="1">
          <mxGeometry x="147" y="813" width="197" height="30" as="geometry" />
        </mxCell>
        <mxCell id="DUNOncYotzXCqIojbgHw-84" value="" style="endArrow=classic;html=1;rounded=0;" edge="1" parent="1">
          <mxGeometry width="50" height="50" relative="1" as="geometry">
            <mxPoint x="587" y="938" as="sourcePoint" />
            <mxPoint x="131" y="940" as="targetPoint" />
          </mxGeometry>
        </mxCell>
        <mxCell id="DUNOncYotzXCqIojbgHw-85" value="" style="endArrow=classic;html=1;rounded=0;" edge="1" parent="1">
          <mxGeometry width="50" height="50" relative="1" as="geometry">
            <mxPoint x="128" y="975" as="sourcePoint" />
            <mxPoint x="821" y="975" as="targetPoint" />
          </mxGeometry>
        </mxCell>
        <mxCell id="DUNOncYotzXCqIojbgHw-86" value="" style="endArrow=classic;html=1;rounded=0;" edge="1" parent="1">
          <mxGeometry width="50" height="50" relative="1" as="geometry">
            <mxPoint x="816" y="1012" as="sourcePoint" />
            <mxPoint x="127" y="1012" as="targetPoint" />
          </mxGeometry>
        </mxCell>
        <mxCell id="DUNOncYotzXCqIojbgHw-87" value="Acknowledge feedback" style="html=1;verticalAlign=bottom;endArrow=open;dashed=1;endSize=8;curved=0;rounded=0;" edge="1" parent="1">
          <mxGeometry relative="1" as="geometry">
            <mxPoint x="129" y="1048" as="sourcePoint" />
            <mxPoint x="822" y="1048" as="targetPoint" />
          </mxGeometry>
        </mxCell>
        <mxCell id="DUNOncYotzXCqIojbgHw-88" value="collect traffic data" style="text;html=1;align=center;verticalAlign=middle;whiteSpace=wrap;rounded=0;" vertex="1" parent="1">
          <mxGeometry x="123" y="915" width="172" height="30" as="geometry" />
        </mxCell>
        <mxCell id="DUNOncYotzXCqIojbgHw-89" value="Send feedback (new Intersection)" style="text;html=1;align=center;verticalAlign=middle;whiteSpace=wrap;rounded=0;" vertex="1" parent="1">
          <mxGeometry x="111" y="988" width="254" height="30" as="geometry" />
        </mxCell>
        <mxCell id="DUNOncYotzXCqIojbgHw-90" value="Adjust new traffic light" style="text;html=1;align=center;verticalAlign=middle;whiteSpace=wrap;rounded=0;" vertex="1" parent="1">
          <mxGeometry x="115" y="949" width="172" height="30" as="geometry" />
        </mxCell>
        <mxCell id="DUNOncYotzXCqIojbgHw-92" value="Normal Traffic light Adjustment cycle" style="rounded=1;whiteSpace=wrap;html=1;fillColor=#f8cecc;strokeColor=#b85450;" vertex="1" parent="1">
          <mxGeometry x="248" y="95" width="246" height="23" as="geometry" />
        </mxCell>
        <mxCell id="DUNOncYotzXCqIojbgHw-93" value="Error handling(sensor failure)" style="rounded=1;whiteSpace=wrap;html=1;fillColor=#d5e8d4;strokeColor=#82b366;" vertex="1" parent="1">
          <mxGeometry x="253" y="334" width="246" height="23" as="geometry" />
        </mxCell>
        <mxCell id="DUNOncYotzXCqIojbgHw-94" value="Scalability( Additional Intersections)" style="rounded=1;whiteSpace=wrap;html=1;fillColor=#dae8fc;strokeColor=#6c8ebf;" vertex="1" parent="1">
          <mxGeometry x="263" y="873" width="246" height="23" as="geometry" />
        </mxCell>
        <mxCell id="DUNOncYotzXCqIojbgHw-95" value="Concurrency and Synchronization" style="rounded=1;whiteSpace=wrap;html=1;fillColor=#e1d5e7;strokeColor=#9673a6;" vertex="1" parent="1">
          <mxGeometry x="257" y="576" width="246" height="23" as="geometry" />
        </mxCell>
        <mxCell id="DUNOncYotzXCqIojbgHw-96" value="" style="endArrow=none;html=1;rounded=0;entryX=0;entryY=0.5;entryDx=0;entryDy=0;" edge="1" parent="1" target="DUNOncYotzXCqIojbgHw-92">
          <mxGeometry width="50" height="50" relative="1" as="geometry">
            <mxPoint x="-78" y="107" as="sourcePoint" />
            <mxPoint x="420" y="341" as="targetPoint" />
          </mxGeometry>
        </mxCell>
        <mxCell id="DUNOncYotzXCqIojbgHw-97" value="" style="endArrow=none;html=1;rounded=0;entryX=1;entryY=0.5;entryDx=0;entryDy=0;" edge="1" parent="1" target="DUNOncYotzXCqIojbgHw-92">
          <mxGeometry width="50" height="50" relative="1" as="geometry">
            <mxPoint x="821" y="110" as="sourcePoint" />
            <mxPoint x="420" y="341" as="targetPoint" />
          </mxGeometry>
        </mxCell>
        <mxCell id="DUNOncYotzXCqIojbgHw-98" value="" style="endArrow=none;html=1;rounded=0;entryX=0;entryY=0.5;entryDx=0;entryDy=0;" edge="1" parent="1">
          <mxGeometry width="50" height="50" relative="1" as="geometry">
            <mxPoint x="-80" y="345" as="sourcePoint" />
            <mxPoint x="253" y="345.05" as="targetPoint" />
          </mxGeometry>
        </mxCell>
        <mxCell id="DUNOncYotzXCqIojbgHw-99" value="" style="endArrow=none;html=1;rounded=0;entryX=0;entryY=0.5;entryDx=0;entryDy=0;" edge="1" parent="1" target="DUNOncYotzXCqIojbgHw-95">
          <mxGeometry width="50" height="50" relative="1" as="geometry">
            <mxPoint x="-81" y="591" as="sourcePoint" />
            <mxPoint x="256" y="592.05" as="targetPoint" />
          </mxGeometry>
        </mxCell>
        <mxCell id="DUNOncYotzXCqIojbgHw-100" value="" style="endArrow=none;html=1;rounded=0;entryX=0;entryY=0.5;entryDx=0;entryDy=0;" edge="1" parent="1" target="DUNOncYotzXCqIojbgHw-94">
          <mxGeometry width="50" height="50" relative="1" as="geometry">
            <mxPoint x="-81" y="886" as="sourcePoint" />
            <mxPoint x="259" y="884.0999999999999" as="targetPoint" />
          </mxGeometry>
        </mxCell>
        <mxCell id="DUNOncYotzXCqIojbgHw-101" value="" style="endArrow=none;html=1;rounded=0;entryX=1;entryY=0.5;entryDx=0;entryDy=0;" edge="1" parent="1">
          <mxGeometry width="50" height="50" relative="1" as="geometry">
            <mxPoint x="826" y="350" as="sourcePoint" />
            <mxPoint x="499" y="347" as="targetPoint" />
          </mxGeometry>
        </mxCell>
        <mxCell id="DUNOncYotzXCqIojbgHw-102" value="" style="endArrow=none;html=1;rounded=0;entryX=1;entryY=0.5;entryDx=0;entryDy=0;" edge="1" parent="1">
          <mxGeometry width="50" height="50" relative="1" as="geometry">
            <mxPoint x="820" y="586" as="sourcePoint" />
            <mxPoint x="503" y="586" as="targetPoint" />
          </mxGeometry>
        </mxCell>
        <mxCell id="DUNOncYotzXCqIojbgHw-103" value="" style="endArrow=none;html=1;rounded=0;entryX=1;entryY=0.5;entryDx=0;entryDy=0;" edge="1" parent="1">
          <mxGeometry width="50" height="50" relative="1" as="geometry">
            <mxPoint x="820" y="884" as="sourcePoint" />
            <mxPoint x="509" y="884.05" as="targetPoint" />
          </mxGeometry>
        </mxCell>
      </root>
    </mxGraphModel>
  </diagram>
</mxfile>
